<svg width="1200" height="630" viewBox="0 0 1200 630" fill="none" xmlns="http://www.w3.org/2000/svg">
  <rect width="1200" height="630" fill="#020617"/>
  <rect x="64" y="64" width="1072" height="502" rx="48" fill="#0F172A" stroke="#1E293B" stroke-width="4"/>
  <circle cx="170" cy="170" r="58" fill="url(#logoGradient)"/>
  <text x="148" y="195" fill="white" font-family="Inter, Arial, sans-serif" font-size="58" font-weight="900">L</text>
  <text x="252" y="166" fill="#F8FAFC" font-family="Inter, Arial, sans-serif" font-size="56" font-weight="900">LUGAISH</text>
  <text x="254" y="212" fill="#34D399" font-family="Inter, Arial, sans-serif" font-size="22" font-weight="800" letter-spacing="9">ARABIC &amp; ENGLISH LEARNING</text>
  <text x="118" y="354" fill="#F8FAFC" font-family="Inter, Arial, sans-serif" font-size="74" font-weight="900">Climb to Fluency</text>
  <text x="122" y="424" fill="#CBD5E1" font-family="Inter, Arial, sans-serif" font-size="32" font-weight="600">Daily lessons, guided practice, and progress tracking.</text>
  <rect x="122" y="472" width="306" height="62" rx="31" fill="url(#buttonGradient)"/>
  <text x="168" y="513" fill="#F8FAFC" font-family="Inter, Arial, sans-serif" font-size="24" font-weight="900">Start Learning</text>
  <path d="M835 164C938 164 1022 248 1022 351C1022 454 938 538 835 538C732 538 648 454 648 351C648 248 732 164 835 164Z" fill="#2563EB" opacity="0.28"/>
  <path d="M746 250H958V468H746V250Z" fill="#111827" stroke="#475569" stroke-width="8"/>
  <path d="M782 300H922" stroke="#34D399" stroke-width="18" stroke-linecap="round"/>
  <path d="M782 354H890" stroke="#60A5FA" stroke-width="18" stroke-linecap="round"/>
  <path d="M782 408H930" stroke="#F8FAFC" stroke-width="18" stroke-linecap="round" opacity="0.7"/>
  <defs>
    <linearGradient id="logoGradient" x1="112" y1="112" x2="228" y2="228" gradientUnits="userSpaceOnUse">
      <stop stop-color="#2563EB"/>
      <stop offset="1" stop-color="#34D399"/>
    </linearGradient>
    <linearGradient id="buttonGradient" x1="122" y1="472" x2="428" y2="534" gradientUnits="userSpaceOnUse">
      <stop stop-color="#2563EB"/>
      <stop offset="1" stop-color="#10B981"/>
    </linearGradient>
  </defs>
</svg>
